<mxfile host="Electron" agent="Mozilla/5.0 (Windows NT 10.0; Win64; x64) AppleWebKit/537.36 (KHTML, like Gecko) draw.io/26.0.16 Chrome/132.0.6834.196 Electron/34.2.0 Safari/537.36" version="26.0.16">
  <diagram name="Page-1" id="uZUym6fXxYAb0Eo1AD6r">
    <mxGraphModel dx="1967" dy="1143" grid="0" gridSize="10" guides="1" tooltips="1" connect="1" arrows="1" fold="1" page="0" pageScale="1" pageWidth="827" pageHeight="1169" math="0" shadow="0">
      <root>
        <mxCell id="0" />
        <mxCell id="1" parent="0" />
        <mxCell id="4qF4zze2FZY66AvsV2fp-130" style="edgeStyle=orthogonalEdgeStyle;rounded=0;orthogonalLoop=1;jettySize=auto;html=1;startArrow=oval;startFill=1;endArrow=box;endFill=0;" parent="1" source="y1gp-bzW4-HP8l7sitU9-10" target="4qF4zze2FZY66AvsV2fp-107" edge="1">
          <mxGeometry relative="1" as="geometry">
            <Array as="points">
              <mxPoint x="787" y="202" />
              <mxPoint x="787" y="285" />
              <mxPoint x="134" y="285" />
              <mxPoint x="134" y="283" />
              <mxPoint x="-213" y="283" />
            </Array>
          </mxGeometry>
        </mxCell>
        <mxCell id="y1gp-bzW4-HP8l7sitU9-10" value="&lt;p style=&quot;margin:0px;margin-top:6px;text-align:center;&quot;&gt;&lt;b&gt;Movement&lt;/b&gt;&lt;/p&gt;&lt;hr size=&quot;1&quot; style=&quot;border-style:solid;&quot;&gt;&lt;p style=&quot;margin:0px;margin-left:8px;&quot;&gt;+ function: Callback&lt;/p&gt;&lt;p style=&quot;margin:0px;margin-left:8px;&quot;&gt;+ Dependency[ ]: dependencies&lt;/p&gt;&lt;p style=&quot;margin:0px;margin-left:8px;&quot;&gt;+ ActuatorName: actuator&lt;/p&gt;" style="align=left;overflow=fill;html=1;dropTarget=0;whiteSpace=wrap;fillColor=#60a917;fontColor=#ffffff;strokeColor=#2D7600;" parent="1" vertex="1">
          <mxGeometry x="425.94" y="132" width="296" height="78" as="geometry" />
        </mxCell>
        <mxCell id="y1gp-bzW4-HP8l7sitU9-11" value="" style="shape=component;jettyWidth=8;jettyHeight=4;" parent="y1gp-bzW4-HP8l7sitU9-10" vertex="1">
          <mxGeometry x="1" width="20" height="20" relative="1" as="geometry">
            <mxPoint x="-24" y="4" as="offset" />
          </mxGeometry>
        </mxCell>
        <mxCell id="y1gp-bzW4-HP8l7sitU9-34" style="edgeStyle=orthogonalEdgeStyle;rounded=0;orthogonalLoop=1;jettySize=auto;html=1;dashed=1;" parent="1" source="y1gp-bzW4-HP8l7sitU9-29" target="y1gp-bzW4-HP8l7sitU9-10" edge="1">
          <mxGeometry relative="1" as="geometry" />
        </mxCell>
        <mxCell id="y1gp-bzW4-HP8l7sitU9-29" value="&lt;p style=&quot;margin:0px;margin-top:6px;text-align:center;&quot;&gt;&lt;b&gt;&lt;font style=&quot;color: rgb(255, 255, 255);&quot;&gt;TimedMovement&lt;/font&gt;&lt;/b&gt;&lt;/p&gt;&lt;hr size=&quot;1&quot; style=&quot;border-style:solid;&quot;&gt;&lt;p style=&quot;margin:0px;margin-left:8px;&quot;&gt;&lt;span style=&quot;background-color: transparent;&quot;&gt;&lt;font style=&quot;color: rgb(255, 255, 255);&quot;&gt;+ u int: duration&lt;/font&gt;&lt;/span&gt;&lt;/p&gt;&lt;p style=&quot;margin:0px;margin-left:8px;&quot;&gt;&lt;span style=&quot;background-color: transparent;&quot;&gt;&lt;font style=&quot;color: rgb(255, 255, 255);&quot;&gt;+ InTimer*: timer&lt;/font&gt;&lt;/span&gt;&lt;/p&gt;" style="align=left;overflow=fill;html=1;dropTarget=0;whiteSpace=wrap;fillColor=#008a00;fontColor=#ffffff;strokeColor=#005700;" parent="1" vertex="1">
          <mxGeometry x="350.94" y="335" width="180" height="90" as="geometry" />
        </mxCell>
        <mxCell id="y1gp-bzW4-HP8l7sitU9-30" value="" style="shape=component;jettyWidth=8;jettyHeight=4;" parent="y1gp-bzW4-HP8l7sitU9-29" vertex="1">
          <mxGeometry x="1" width="20" height="20" relative="1" as="geometry">
            <mxPoint x="-24" y="4" as="offset" />
          </mxGeometry>
        </mxCell>
        <mxCell id="y1gp-bzW4-HP8l7sitU9-33" style="edgeStyle=orthogonalEdgeStyle;rounded=0;orthogonalLoop=1;jettySize=auto;html=1;dashed=1;" parent="1" source="y1gp-bzW4-HP8l7sitU9-31" target="y1gp-bzW4-HP8l7sitU9-10" edge="1">
          <mxGeometry relative="1" as="geometry" />
        </mxCell>
        <mxCell id="y1gp-bzW4-HP8l7sitU9-31" value="&lt;p style=&quot;margin:0px;margin-top:6px;text-align:center;&quot;&gt;&lt;b&gt;TriggeredMovement&lt;/b&gt;&lt;/p&gt;&lt;hr size=&quot;1&quot; style=&quot;border-style:solid;&quot;&gt;&lt;p style=&quot;margin:0px;margin-left:8px;&quot;&gt;+ function: checker&lt;/p&gt;&lt;p style=&quot;margin:0px;margin-left:8px;&quot;&gt;+ u int: timeout&lt;/p&gt;&lt;p style=&quot;margin:0px;margin-left:8px;&quot;&gt;+ InTimer*: timeoutTimer&lt;/p&gt;" style="align=left;overflow=fill;html=1;dropTarget=0;whiteSpace=wrap;fillColor=#008a00;fontColor=#ffffff;strokeColor=#005700;" parent="1" vertex="1">
          <mxGeometry x="628.94" y="335" width="180" height="90" as="geometry" />
        </mxCell>
        <mxCell id="y1gp-bzW4-HP8l7sitU9-32" value="" style="shape=component;jettyWidth=8;jettyHeight=4;" parent="y1gp-bzW4-HP8l7sitU9-31" vertex="1">
          <mxGeometry x="1" width="20" height="20" relative="1" as="geometry">
            <mxPoint x="-24" y="4" as="offset" />
          </mxGeometry>
        </mxCell>
        <mxCell id="4qF4zze2FZY66AvsV2fp-13" value="ActionController" style="swimlane;fontStyle=1;align=center;verticalAlign=top;childLayout=stackLayout;horizontal=1;startSize=26;horizontalStack=0;resizeParent=1;resizeParentMax=0;resizeLast=0;collapsible=1;marginBottom=0;whiteSpace=wrap;html=1;fillColor=#a20025;strokeColor=#6F0000;fontColor=#ffffff;" parent="1" vertex="1">
          <mxGeometry x="-665" y="132" width="160" height="164" as="geometry" />
        </mxCell>
        <mxCell id="4qF4zze2FZY66AvsV2fp-90" value="+ [Movement] movements" style="text;strokeColor=none;fillColor=none;align=left;verticalAlign=top;spacingLeft=4;spacingRight=4;overflow=hidden;rotatable=0;points=[[0,0.5],[1,0.5]];portConstraint=eastwest;whiteSpace=wrap;html=1;" parent="4qF4zze2FZY66AvsV2fp-13" vertex="1">
          <mxGeometry y="26" width="160" height="26" as="geometry" />
        </mxCell>
        <mxCell id="4qF4zze2FZY66AvsV2fp-63" value="+ [Dependency] actions" style="text;strokeColor=none;fillColor=none;align=left;verticalAlign=top;spacingLeft=4;spacingRight=4;overflow=hidden;rotatable=0;points=[[0,0.5],[1,0.5]];portConstraint=eastwest;whiteSpace=wrap;html=1;" parent="4qF4zze2FZY66AvsV2fp-13" vertex="1">
          <mxGeometry y="52" width="160" height="26" as="geometry" />
        </mxCell>
        <mxCell id="4qF4zze2FZY66AvsV2fp-112" value="+ [Actuator] actuators" style="text;strokeColor=none;fillColor=none;align=left;verticalAlign=top;spacingLeft=4;spacingRight=4;overflow=hidden;rotatable=0;points=[[0,0.5],[1,0.5]];portConstraint=eastwest;whiteSpace=wrap;html=1;" parent="4qF4zze2FZY66AvsV2fp-13" vertex="1">
          <mxGeometry y="78" width="160" height="26" as="geometry" />
        </mxCell>
        <mxCell id="4qF4zze2FZY66AvsV2fp-15" value="" style="line;strokeWidth=1;fillColor=none;align=left;verticalAlign=middle;spacingTop=-1;spacingLeft=3;spacingRight=3;rotatable=0;labelPosition=right;points=[];portConstraint=eastwest;strokeColor=inherit;" parent="4qF4zze2FZY66AvsV2fp-13" vertex="1">
          <mxGeometry y="104" width="160" height="8" as="geometry" />
        </mxCell>
        <mxCell id="4qF4zze2FZY66AvsV2fp-16" value="+ setup()" style="text;strokeColor=none;fillColor=none;align=left;verticalAlign=top;spacingLeft=4;spacingRight=4;overflow=hidden;rotatable=0;points=[[0,0.5],[1,0.5]];portConstraint=eastwest;whiteSpace=wrap;html=1;" parent="4qF4zze2FZY66AvsV2fp-13" vertex="1">
          <mxGeometry y="112" width="160" height="26" as="geometry" />
        </mxCell>
        <mxCell id="4qF4zze2FZY66AvsV2fp-34" value="+ update()" style="text;strokeColor=none;fillColor=none;align=left;verticalAlign=top;spacingLeft=4;spacingRight=4;overflow=hidden;rotatable=0;points=[[0,0.5],[1,0.5]];portConstraint=eastwest;whiteSpace=wrap;html=1;" parent="4qF4zze2FZY66AvsV2fp-13" vertex="1">
          <mxGeometry y="138" width="160" height="26" as="geometry" />
        </mxCell>
        <mxCell id="4qF4zze2FZY66AvsV2fp-96" style="edgeStyle=orthogonalEdgeStyle;rounded=0;orthogonalLoop=1;jettySize=auto;html=1;endArrow=box;endFill=0;startArrow=oval;startFill=1;" parent="1" source="4qF4zze2FZY66AvsV2fp-60" target="4qF4zze2FZY66AvsV2fp-76" edge="1">
          <mxGeometry relative="1" as="geometry">
            <Array as="points">
              <mxPoint x="241" y="19" />
            </Array>
          </mxGeometry>
        </mxCell>
        <mxCell id="4qF4zze2FZY66AvsV2fp-110" style="edgeStyle=orthogonalEdgeStyle;rounded=0;orthogonalLoop=1;jettySize=auto;html=1;endArrow=box;endFill=0;startArrow=oval;startFill=1;" parent="1" source="4qF4zze2FZY66AvsV2fp-60" target="4qF4zze2FZY66AvsV2fp-89" edge="1">
          <mxGeometry relative="1" as="geometry">
            <mxPoint x="92" y="70" as="sourcePoint" />
            <Array as="points">
              <mxPoint x="106" y="42" />
            </Array>
          </mxGeometry>
        </mxCell>
        <mxCell id="4qF4zze2FZY66AvsV2fp-60" value="&lt;p style=&quot;margin:0px;margin-top:6px;text-align:center;&quot;&gt;&lt;b&gt;&lt;font style=&quot;color: rgb(255, 255, 255);&quot;&gt;Actuator&lt;/font&gt;&lt;/b&gt;&lt;/p&gt;&lt;hr size=&quot;1&quot; style=&quot;border-style:solid;&quot;&gt;&lt;p style=&quot;margin:0px;margin-left:8px;&quot;&gt;&lt;font style=&quot;color: rgb(255, 255, 255);&quot;&gt;+ MovementName[ ]: moves&lt;/font&gt;&lt;/p&gt;&lt;p style=&quot;margin: 0px 0px 0px 8px;&quot;&gt;&lt;font style=&quot;color: rgb(255, 255, 255);&quot;&gt;+&amp;nbsp;&lt;span style=&quot;background-color: transparent;&quot;&gt;State&amp;lt;MovementName&amp;gt; target&lt;/span&gt;&lt;/font&gt;&lt;/p&gt;&lt;p style=&quot;margin:0px;margin-left:8px;&quot;&gt;&lt;font style=&quot;color: rgb(255, 255, 255);&quot;&gt;&lt;/font&gt;&lt;/p&gt;&lt;p style=&quot;margin: 0px 0px 0px 8px;&quot;&gt;&lt;font style=&quot;color: rgb(255, 255, 255);&quot;&gt;+ State&amp;lt;ActuatorStatus&amp;gt; status&lt;/font&gt;&lt;/p&gt;&lt;p style=&quot;margin:0px;margin-left:8px;&quot;&gt;&lt;span style=&quot;color: rgba(0, 0, 0, 0); font-family: monospace; font-size: 0px; text-wrap-mode: nowrap;&quot;&gt;%3CmxGraphModel%3E%3Croot%3E%3CmxCell%20id%3D%220%22%2F%3E%3CmxCell%20id%3D%221%22%20parent%3D%220%22%2F%3E%3CmxCell%20id%3D%222%22%20value%3D%22ActuatorsController%22%20style%3D%22swimlane%3BfontStyle%3D1%3Balign%3Dcenter%3BverticalAlign%3Dtop%3BchildLayout%3DstackLayout%3Bhorizontal%3D1%3BstartSize%3D26%3BhorizontalStack%3D0%3BresizeParent%3D1%3BresizeParentMax%3D0%3BresizeLast%3D0%3Bcollapsible%3D1%3BmarginBottom%3D0%3BwhiteSpace%3Dwrap%3Bhtml%3D1%3BfillColor%3D%236a00ff%3BstrokeColor%3D%233700CC%3BfontColor%3D%23ffffff%3B%22%20vertex%3D%221%22%20parent%3D%221%22%3E%3CmxGeometry%20x%3D%22-423%22%20y%3D%22-70%22%20width%3D%22160%22%20height%3D%22138%22%20as%3D%22geometry%22%2F%3E%3C%2FmxCell%3E%3CmxCell%20id%3D%223%22%20value%3D%22%2B%20(Actuator%3A%20actuator...)%22%20style%3D%22text%3BstrokeColor%3Dnone%3BfillColor%3Dnone%3Balign%3Dleft%3BverticalAlign%3Dtop%3BspacingLeft%3D4%3BspacingRight%3D4%3Boverflow%3Dhidden%3Brotatable%3D0%3Bpoints%3D%5B%5B0%2C0.5%5D%2C%5B1%2C0.5%5D%5D%3BportConstraint%3Deastwest%3BwhiteSpace%3Dwrap%3Bhtml%3D1%3B%22%20vertex%3D%221%22%20parent%3D%222%22%3E%3CmxGeometry%20y%3D%2226%22%20width%3D%22160%22%20height%3D%2226%22%20as%3D%22geometry%22%2F%3E%3C%2FmxCell%3E%3CmxCell%20id%3D%224%22%20value%3D%22%22%20style%3D%22line%3BstrokeWidth%3D1%3BfillColor%3Dnone%3Balign%3Dleft%3BverticalAlign%3Dmiddle%3BspacingTop%3D-1%3BspacingLeft%3D3%3BspacingRight%3D3%3Brotatable%3D0%3BlabelPosition%3Dright%3Bpoints%3D%5B%5D%3BportConstraint%3Deastwest%3BstrokeColor%3Dinherit%3B%22%20vertex%3D%221%22%20parent%3D%222%22%3E%3CmxGeometry%20y%3D%2252%22%20width%3D%22160%22%20height%3D%228%22%20as%3D%22geometry%22%2F%3E%3C%2FmxCell%3E%3CmxCell%20id%3D%225%22%20value%3D%22%2B%20setup()%22%20style%3D%22text%3BstrokeColor%3Dnone%3BfillColor%3Dnone%3Balign%3Dleft%3BverticalAlign%3Dtop%3BspacingLeft%3D4%3BspacingRight%3D4%3Boverflow%3Dhidden%3Brotatable%3D0%3Bpoints%3D%5B%5B0%2C0.5%5D%2C%5B1%2C0.5%5D%5D%3BportConstraint%3Deastwest%3BwhiteSpace%3Dwrap%3Bhtml%3D1%3B%22%20vertex%3D%221%22%20parent%3D%222%22%3E%3CmxGeometry%20y%3D%2260%22%20width%3D%22160%22%20height%3D%2226%22%20as%3D%22geometry%22%2F%3E%3C%2FmxCell%3E%3CmxCell%20id%3D%226%22%20value%3D%22%2B%20update()%22%20style%3D%22text%3BstrokeColor%3Dnone%3BfillColor%3Dnone%3Balign%3Dleft%3BverticalAlign%3Dtop%3BspacingLeft%3D4%3BspacingRight%3D4%3Boverflow%3Dhidden%3Brotatable%3D0%3Bpoints%3D%5B%5B0%2C0.5%5D%2C%5B1%2C0.5%5D%5D%3BportConstraint%3Deastwest%3BwhiteSpace%3Dwrap%3Bhtml%3D1%3B%22%20vertex%3D%221%22%20parent%3D%222%22%3E%3CmxGeometry%20y%3D%2286%22%20width%3D%22160%22%20height%3D%2226%22%20as%3D%22geometry%22%2F%3E%3C%2FmxCell%3E%3CmxCell%20id%3D%227%22%20value%3D%22%2B%20getActuatorFromMov()%22%20style%3D%22text%3BstrokeColor%3Dnone%3BfillColor%3Dnone%3Balign%3Dleft%3BverticalAlign%3Dtop%3BspacingLeft%3D4%3BspacingRight%3D4%3Boverflow%3Dhidden%3Brotatable%3D0%3Bpoints%3D%5B%5B0%2C0.5%5D%2C%5B1%2C0.5%5D%5D%3BportConstraint%3Deastwest%3BwhiteSpace%3Dwrap%3Bhtml%3D1%3B%22%20vertex%3D%221%22%20parent%3D%222%22%3E%3CmxGeometry%20y%3D%22112%22%20width%3D%22160%22%20height%3D%2226%22%20as%3D%22geometry%22%2F%3E%3C%2&lt;/span&gt;&lt;/p&gt;" style="align=left;overflow=fill;html=1;dropTarget=0;whiteSpace=wrap;fillColor=#1ba1e2;fontColor=#ffffff;strokeColor=#006EAF;" parent="1" vertex="1">
          <mxGeometry x="-178" y="-33" width="252" height="97" as="geometry" />
        </mxCell>
        <mxCell id="4qF4zze2FZY66AvsV2fp-61" value="" style="shape=component;jettyWidth=8;jettyHeight=4;" parent="4qF4zze2FZY66AvsV2fp-60" vertex="1">
          <mxGeometry x="1" width="20" height="20" relative="1" as="geometry">
            <mxPoint x="-24" y="4" as="offset" />
          </mxGeometry>
        </mxCell>
        <mxCell id="4qF4zze2FZY66AvsV2fp-73" style="edgeStyle=orthogonalEdgeStyle;rounded=0;orthogonalLoop=1;jettySize=auto;html=1;startArrow=box;startFill=0;endArrow=oval;endFill=1;" parent="1" source="4qF4zze2FZY66AvsV2fp-66" target="y1gp-bzW4-HP8l7sitU9-10" edge="1">
          <mxGeometry relative="1" as="geometry">
            <mxPoint x="102.99882352941171" y="374.9999999999998" as="sourcePoint" />
            <Array as="points">
              <mxPoint x="-71" y="479" />
              <mxPoint x="862" y="479" />
              <mxPoint x="862" y="190" />
            </Array>
          </mxGeometry>
        </mxCell>
        <mxCell id="4qF4zze2FZY66AvsV2fp-94" style="edgeStyle=orthogonalEdgeStyle;rounded=0;orthogonalLoop=1;jettySize=auto;html=1;exitX=1;exitY=0.628;exitDx=0;exitDy=0;exitPerimeter=0;startArrow=oval;startFill=1;endArrow=box;endFill=0;entryX=0.5;entryY=1;entryDx=0;entryDy=0;" parent="1" source="4qF4zze2FZY66AvsV2fp-66" target="4qF4zze2FZY66AvsV2fp-89" edge="1">
          <mxGeometry relative="1" as="geometry">
            <Array as="points">
              <mxPoint x="106" y="343" />
            </Array>
          </mxGeometry>
        </mxCell>
        <mxCell id="4qF4zze2FZY66AvsV2fp-98" style="edgeStyle=orthogonalEdgeStyle;rounded=0;orthogonalLoop=1;jettySize=auto;html=1;startArrow=oval;startFill=1;endArrow=box;endFill=0;" parent="1" source="4qF4zze2FZY66AvsV2fp-66" target="4qF4zze2FZY66AvsV2fp-76" edge="1">
          <mxGeometry relative="1" as="geometry" />
        </mxCell>
        <mxCell id="4qF4zze2FZY66AvsV2fp-66" value="&lt;p style=&quot;margin:0px;margin-top:6px;text-align:center;&quot;&gt;&lt;b&gt;&lt;font style=&quot;color: rgb(255, 255, 255);&quot;&gt;Dependency&lt;/font&gt;&lt;/b&gt;&lt;/p&gt;&lt;hr size=&quot;1&quot; style=&quot;border-style:solid;&quot;&gt;&lt;p style=&quot;margin:0px;margin-left:8px;&quot;&gt;&lt;span style=&quot;background-color: transparent;&quot;&gt;&lt;font style=&quot;color: rgb(255, 255, 255);&quot;&gt;+ MovementName: movement&lt;/font&gt;&lt;/span&gt;&lt;/p&gt;&lt;p style=&quot;margin:0px;margin-left:8px;&quot;&gt;&lt;font style=&quot;color: rgb(255, 255, 255);&quot;&gt;+ ActuatorStatus: desiredStatus&lt;/font&gt;&lt;/p&gt;" style="align=left;overflow=fill;html=1;dropTarget=0;whiteSpace=wrap;fillColor=#a20025;fontColor=#ffffff;strokeColor=#6F0000;" parent="1" vertex="1">
          <mxGeometry x="-169" y="289" width="204" height="86" as="geometry" />
        </mxCell>
        <mxCell id="4qF4zze2FZY66AvsV2fp-67" value="" style="shape=component;jettyWidth=8;jettyHeight=4;" parent="4qF4zze2FZY66AvsV2fp-66" vertex="1">
          <mxGeometry x="1" width="20" height="20" relative="1" as="geometry">
            <mxPoint x="-24" y="4" as="offset" />
          </mxGeometry>
        </mxCell>
        <mxCell id="4qF4zze2FZY66AvsV2fp-68" style="edgeStyle=orthogonalEdgeStyle;rounded=0;orthogonalLoop=1;jettySize=auto;html=1;exitX=1;exitY=0.5;exitDx=0;exitDy=0;endArrow=box;endFill=0;" parent="1" source="4qF4zze2FZY66AvsV2fp-69" target="4qF4zze2FZY66AvsV2fp-66" edge="1">
          <mxGeometry relative="1" as="geometry">
            <Array as="points" />
          </mxGeometry>
        </mxCell>
        <mxCell id="4qF4zze2FZY66AvsV2fp-69" value="&lt;b&gt;Enum&lt;/b&gt;&lt;br&gt;ActionName" style="html=1;whiteSpace=wrap;fillColor=#ffcd28;strokeColor=#d79b00;gradientColor=#ffa500;" parent="1" vertex="1">
          <mxGeometry x="-429" y="307" width="110" height="50" as="geometry" />
        </mxCell>
        <mxCell id="4qF4zze2FZY66AvsV2fp-92" style="edgeStyle=orthogonalEdgeStyle;rounded=0;orthogonalLoop=1;jettySize=auto;html=1;" parent="1" source="4qF4zze2FZY66AvsV2fp-76" target="y1gp-bzW4-HP8l7sitU9-10" edge="1">
          <mxGeometry relative="1" as="geometry">
            <Array as="points">
              <mxPoint x="392" y="178" />
              <mxPoint x="392" y="178" />
            </Array>
          </mxGeometry>
        </mxCell>
        <mxCell id="4qF4zze2FZY66AvsV2fp-76" value="&lt;b&gt;Enum &lt;/b&gt;MovementName" style="html=1;whiteSpace=wrap;fillColor=#ffcd28;strokeColor=#d79b00;gradientColor=#ffa500;" parent="1" vertex="1">
          <mxGeometry x="194" y="149" width="110" height="50" as="geometry" />
        </mxCell>
        <mxCell id="4qF4zze2FZY66AvsV2fp-89" value="&lt;b&gt;Enum&lt;/b&gt;&lt;br&gt;ActuatorStatus" style="html=1;whiteSpace=wrap;fillColor=#ffcd28;strokeColor=#d79b00;gradientColor=#ffa500;" parent="1" vertex="1">
          <mxGeometry x="51" y="210" width="110" height="50" as="geometry" />
        </mxCell>
        <mxCell id="4qF4zze2FZY66AvsV2fp-91" style="edgeStyle=orthogonalEdgeStyle;rounded=0;orthogonalLoop=1;jettySize=auto;html=1;endArrow=classic;startFill=1;startArrow=oval;endFill=1;" parent="1" source="4qF4zze2FZY66AvsV2fp-90" target="4qF4zze2FZY66AvsV2fp-76" edge="1">
          <mxGeometry relative="1" as="geometry">
            <mxPoint x="-468" y="160" as="sourcePoint" />
            <Array as="points">
              <mxPoint x="-328" y="174" />
              <mxPoint x="-328" y="174" />
            </Array>
          </mxGeometry>
        </mxCell>
        <mxCell id="4qF4zze2FZY66AvsV2fp-111" style="edgeStyle=orthogonalEdgeStyle;rounded=0;orthogonalLoop=1;jettySize=auto;html=1;startArrow=oval;startFill=1;" parent="1" source="4qF4zze2FZY66AvsV2fp-63" target="4qF4zze2FZY66AvsV2fp-69" edge="1">
          <mxGeometry relative="1" as="geometry" />
        </mxCell>
        <mxCell id="4qF4zze2FZY66AvsV2fp-114" style="edgeStyle=orthogonalEdgeStyle;rounded=0;orthogonalLoop=1;jettySize=auto;html=1;startArrow=oval;startFill=1;endArrow=box;endFill=0;" parent="1" source="4qF4zze2FZY66AvsV2fp-107" target="4qF4zze2FZY66AvsV2fp-60" edge="1">
          <mxGeometry relative="1" as="geometry">
            <Array as="points">
              <mxPoint x="-52" y="222" />
            </Array>
          </mxGeometry>
        </mxCell>
        <mxCell id="4qF4zze2FZY66AvsV2fp-129" value="" style="edgeStyle=orthogonalEdgeStyle;rounded=0;orthogonalLoop=1;jettySize=auto;html=1;startArrow=oval;startFill=1;endArrow=classic;endFill=1;" parent="1" source="4qF4zze2FZY66AvsV2fp-112" target="4qF4zze2FZY66AvsV2fp-107" edge="1">
          <mxGeometry relative="1" as="geometry">
            <mxPoint x="-505" y="223" as="sourcePoint" />
            <mxPoint x="-52" y="64" as="targetPoint" />
            <Array as="points">
              <mxPoint x="-334" y="223" />
              <mxPoint x="-334" y="223" />
            </Array>
          </mxGeometry>
        </mxCell>
        <mxCell id="4qF4zze2FZY66AvsV2fp-107" value="&lt;b&gt;Enum &lt;/b&gt;ActuatorName" style="html=1;whiteSpace=wrap;fillColor=#ffcd28;strokeColor=#d79b00;gradientColor=#ffa500;" parent="1" vertex="1">
          <mxGeometry x="-268" y="194" width="110" height="50" as="geometry" />
        </mxCell>
        <mxCell id="9QVo4-oOmZEvBFqGmnvR-5" value="" style="edgeStyle=orthogonalEdgeStyle;rounded=0;orthogonalLoop=1;jettySize=auto;html=1;" edge="1" parent="1" source="9QVo4-oOmZEvBFqGmnvR-31" target="9QVo4-oOmZEvBFqGmnvR-4">
          <mxGeometry relative="1" as="geometry" />
        </mxCell>
        <mxCell id="9QVo4-oOmZEvBFqGmnvR-2" value="Update()" style="strokeWidth=2;html=1;shape=mxgraph.flowchart.start_1;whiteSpace=wrap;fillColor=#60a917;strokeColor=#2D7600;fontColor=#ffffff;" vertex="1" parent="1">
          <mxGeometry x="-605" y="458" width="100" height="60" as="geometry" />
        </mxCell>
        <mxCell id="9QVo4-oOmZEvBFqGmnvR-9" value="" style="edgeStyle=orthogonalEdgeStyle;rounded=0;orthogonalLoop=1;jettySize=auto;html=1;" edge="1" parent="1" source="9QVo4-oOmZEvBFqGmnvR-83" target="9QVo4-oOmZEvBFqGmnvR-23">
          <mxGeometry relative="1" as="geometry">
            <mxPoint x="-555" y="1099" as="targetPoint" />
          </mxGeometry>
        </mxCell>
        <mxCell id="9QVo4-oOmZEvBFqGmnvR-15" style="edgeStyle=orthogonalEdgeStyle;rounded=0;orthogonalLoop=1;jettySize=auto;html=1;endArrow=classic;endFill=1;" edge="1" parent="1" source="9QVo4-oOmZEvBFqGmnvR-4" target="9QVo4-oOmZEvBFqGmnvR-125">
          <mxGeometry relative="1" as="geometry">
            <mxPoint x="-213" y="1599" as="targetPoint" />
            <Array as="points">
              <mxPoint x="-212" y="778" />
              <mxPoint x="-212" y="1599" />
            </Array>
          </mxGeometry>
        </mxCell>
        <mxCell id="9QVo4-oOmZEvBFqGmnvR-4" value="Action finsished ?" style="rhombus;whiteSpace=wrap;html=1;strokeWidth=2;fillColor=#e3c800;strokeColor=#B09500;fontColor=#000000;" vertex="1" parent="1">
          <mxGeometry x="-595" y="738" width="80" height="80" as="geometry" />
        </mxCell>
        <mxCell id="9QVo4-oOmZEvBFqGmnvR-24" style="edgeStyle=orthogonalEdgeStyle;rounded=0;orthogonalLoop=1;jettySize=auto;html=1;" edge="1" parent="1" target="9QVo4-oOmZEvBFqGmnvR-23">
          <mxGeometry relative="1" as="geometry">
            <mxPoint x="-555" y="1295" as="sourcePoint" />
          </mxGeometry>
        </mxCell>
        <mxCell id="9QVo4-oOmZEvBFqGmnvR-12" value="Yes" style="text;html=1;align=center;verticalAlign=middle;resizable=0;points=[];autosize=1;strokeColor=none;fillColor=none;" vertex="1" parent="1">
          <mxGeometry x="-507" y="747" width="38" height="26" as="geometry" />
        </mxCell>
        <mxCell id="9QVo4-oOmZEvBFqGmnvR-13" value="End" style="strokeWidth=2;html=1;shape=mxgraph.flowchart.terminator;whiteSpace=wrap;fillColor=#e51400;fontColor=#ffffff;strokeColor=#B20000;" vertex="1" parent="1">
          <mxGeometry x="-604" y="1741" width="100" height="60" as="geometry" />
        </mxCell>
        <mxCell id="9QVo4-oOmZEvBFqGmnvR-16" value="No" style="text;html=1;align=center;verticalAlign=middle;resizable=0;points=[];autosize=1;strokeColor=none;fillColor=none;" vertex="1" parent="1">
          <mxGeometry x="-559" y="823" width="33" height="26" as="geometry" />
        </mxCell>
        <mxCell id="9QVo4-oOmZEvBFqGmnvR-27" value="" style="edgeStyle=orthogonalEdgeStyle;rounded=0;orthogonalLoop=1;jettySize=auto;html=1;exitX=1;exitY=0.5;exitDx=0;exitDy=0;" edge="1" parent="1" source="9QVo4-oOmZEvBFqGmnvR-23">
          <mxGeometry relative="1" as="geometry">
            <mxPoint x="-488" y="1444" as="sourcePoint" />
            <mxPoint x="-393" y="1293" as="targetPoint" />
          </mxGeometry>
        </mxCell>
        <mxCell id="9QVo4-oOmZEvBFqGmnvR-55" style="edgeStyle=orthogonalEdgeStyle;rounded=0;orthogonalLoop=1;jettySize=auto;html=1;" edge="1" parent="1" source="9QVo4-oOmZEvBFqGmnvR-125" target="9QVo4-oOmZEvBFqGmnvR-13">
          <mxGeometry relative="1" as="geometry" />
        </mxCell>
        <mxCell id="9QVo4-oOmZEvBFqGmnvR-23" value="Movement needs finish &amp;amp; movement not finished" style="rhombus;whiteSpace=wrap;html=1;strokeWidth=2;fillColor=#e3c800;strokeColor=#B09500;fontColor=#000000;" vertex="1" parent="1">
          <mxGeometry x="-651.5" y="1374" width="193" height="99" as="geometry" />
        </mxCell>
        <mxCell id="9QVo4-oOmZEvBFqGmnvR-28" value="No" style="text;html=1;align=center;verticalAlign=middle;resizable=0;points=[];autosize=1;strokeColor=none;fillColor=none;" vertex="1" parent="1">
          <mxGeometry x="-435" y="1384" width="33" height="26" as="geometry" />
        </mxCell>
        <mxCell id="9QVo4-oOmZEvBFqGmnvR-32" value="" style="edgeStyle=orthogonalEdgeStyle;rounded=0;orthogonalLoop=1;jettySize=auto;html=1;" edge="1" parent="1" source="9QVo4-oOmZEvBFqGmnvR-2" target="9QVo4-oOmZEvBFqGmnvR-31">
          <mxGeometry relative="1" as="geometry">
            <mxPoint x="-555" y="518" as="sourcePoint" />
            <mxPoint x="-555" y="738" as="targetPoint" />
          </mxGeometry>
        </mxCell>
        <mxCell id="9QVo4-oOmZEvBFqGmnvR-37" value="" style="edgeStyle=orthogonalEdgeStyle;rounded=0;orthogonalLoop=1;jettySize=auto;html=1;" edge="1" parent="1" source="9QVo4-oOmZEvBFqGmnvR-31" target="9QVo4-oOmZEvBFqGmnvR-36">
          <mxGeometry relative="1" as="geometry" />
        </mxCell>
        <mxCell id="9QVo4-oOmZEvBFqGmnvR-44" style="edgeStyle=orthogonalEdgeStyle;rounded=0;orthogonalLoop=1;jettySize=auto;html=1;endArrow=none;startFill=0;" edge="1" parent="1" source="9QVo4-oOmZEvBFqGmnvR-31" target="9QVo4-oOmZEvBFqGmnvR-42">
          <mxGeometry relative="1" as="geometry" />
        </mxCell>
        <mxCell id="9QVo4-oOmZEvBFqGmnvR-31" value="Action changed ?" style="rhombus;whiteSpace=wrap;html=1;strokeWidth=2;fillColor=#e3c800;strokeColor=#B09500;fontColor=#000000;" vertex="1" parent="1">
          <mxGeometry x="-595" y="550" width="80" height="80" as="geometry" />
        </mxCell>
        <mxCell id="9QVo4-oOmZEvBFqGmnvR-34" value="No" style="text;html=1;align=center;verticalAlign=middle;resizable=0;points=[];autosize=1;strokeColor=none;fillColor=none;" vertex="1" parent="1">
          <mxGeometry x="-556" y="632" width="33" height="26" as="geometry" />
        </mxCell>
        <mxCell id="9QVo4-oOmZEvBFqGmnvR-48" style="edgeStyle=orthogonalEdgeStyle;rounded=0;orthogonalLoop=1;jettySize=auto;html=1;" edge="1" parent="1" source="9QVo4-oOmZEvBFqGmnvR-36" target="9QVo4-oOmZEvBFqGmnvR-47">
          <mxGeometry relative="1" as="geometry" />
        </mxCell>
        <mxCell id="9QVo4-oOmZEvBFqGmnvR-36" value="&lt;b&gt;StartAction:&lt;br&gt;&lt;/b&gt;Reset action progress&lt;div&gt;Reset buffer&lt;/div&gt;" style="whiteSpace=wrap;html=1;fillColor=#0050ef;strokeColor=#001DBC;strokeWidth=2;fontColor=#ffffff;" vertex="1" parent="1">
          <mxGeometry x="-455" y="560" width="120" height="60" as="geometry" />
        </mxCell>
        <mxCell id="9QVo4-oOmZEvBFqGmnvR-41" value="Yes" style="text;html=1;align=center;verticalAlign=middle;resizable=0;points=[];autosize=1;strokeColor=none;fillColor=none;" vertex="1" parent="1">
          <mxGeometry x="-507" y="563" width="38" height="26" as="geometry" />
        </mxCell>
        <mxCell id="9QVo4-oOmZEvBFqGmnvR-42" value="GlobalState action" style="shape=parallelogram;html=1;strokeWidth=2;perimeter=parallelogramPerimeter;whiteSpace=wrap;rounded=1;arcSize=12;size=0.23;fillColor=#d80073;fontColor=#ffffff;strokeColor=#A50040;" vertex="1" parent="1">
          <mxGeometry x="-763" y="560" width="100" height="60" as="geometry" />
        </mxCell>
        <mxCell id="9QVo4-oOmZEvBFqGmnvR-51" style="edgeStyle=orthogonalEdgeStyle;rounded=0;orthogonalLoop=1;jettySize=auto;html=1;exitX=0.5;exitY=1;exitDx=0;exitDy=0;" edge="1" parent="1" source="9QVo4-oOmZEvBFqGmnvR-47" target="9QVo4-oOmZEvBFqGmnvR-4">
          <mxGeometry relative="1" as="geometry" />
        </mxCell>
        <mxCell id="9QVo4-oOmZEvBFqGmnvR-47" value="&lt;span style=&quot;background-color: rgb(0, 0, 0);&quot;&gt;Setup movement buffer&lt;/span&gt;" style="verticalLabelPosition=bottom;verticalAlign=top;html=1;shape=process;whiteSpace=wrap;rounded=1;size=0.14;arcSize=6;fillColor=#1ba1e2;fontColor=#ffffff;strokeColor=#006EAF;" vertex="1" parent="1">
          <mxGeometry x="-285" y="560" width="100" height="60" as="geometry" />
        </mxCell>
        <mxCell id="9QVo4-oOmZEvBFqGmnvR-52" value="&lt;div&gt;&lt;b&gt;FinishMove&lt;/b&gt;&lt;/div&gt;remove movement from buffer" style="whiteSpace=wrap;html=1;strokeWidth=2;fillColor=#0050ef;strokeColor=#001DBC;fontColor=#ffffff;" vertex="1" parent="1">
          <mxGeometry x="-455" y="1235" width="120" height="60" as="geometry" />
        </mxCell>
        <mxCell id="9QVo4-oOmZEvBFqGmnvR-57" value="" style="edgeStyle=orthogonalEdgeStyle;rounded=0;orthogonalLoop=1;jettySize=auto;html=1;exitX=0.5;exitY=0;exitDx=0;exitDy=0;entryX=0.5;entryY=0;entryDx=0;entryDy=0;" edge="1" parent="1" source="9QVo4-oOmZEvBFqGmnvR-52" target="9QVo4-oOmZEvBFqGmnvR-56">
          <mxGeometry relative="1" as="geometry">
            <mxPoint x="-395" y="1235" as="sourcePoint" />
            <mxPoint x="-483" y="1008" as="targetPoint" />
            <Array as="points" />
          </mxGeometry>
        </mxCell>
        <mxCell id="9QVo4-oOmZEvBFqGmnvR-58" style="edgeStyle=orthogonalEdgeStyle;rounded=0;orthogonalLoop=1;jettySize=auto;html=1;" edge="1" parent="1" source="9QVo4-oOmZEvBFqGmnvR-56" target="9QVo4-oOmZEvBFqGmnvR-59">
          <mxGeometry relative="1" as="geometry">
            <mxPoint x="-702" y="1158" as="targetPoint" />
          </mxGeometry>
        </mxCell>
        <mxCell id="9QVo4-oOmZEvBFqGmnvR-56" value="Movement started ?" style="rhombus;whiteSpace=wrap;html=1;strokeWidth=2;fillColor=#e3c800;strokeColor=#B09500;fontColor=#000000;" vertex="1" parent="1">
          <mxGeometry x="-595" y="1048" width="80" height="80" as="geometry" />
        </mxCell>
        <mxCell id="9QVo4-oOmZEvBFqGmnvR-63" style="edgeStyle=orthogonalEdgeStyle;rounded=0;orthogonalLoop=1;jettySize=auto;html=1;exitX=0.5;exitY=1;exitDx=0;exitDy=0;" edge="1" parent="1" source="9QVo4-oOmZEvBFqGmnvR-59" target="9QVo4-oOmZEvBFqGmnvR-23">
          <mxGeometry relative="1" as="geometry" />
        </mxCell>
        <mxCell id="9QVo4-oOmZEvBFqGmnvR-59" value="&lt;b&gt;ExecMove :&lt;/b&gt;&lt;br&gt;Execute movement" style="whiteSpace=wrap;html=1;strokeWidth=2;fillColor=#0050ef;strokeColor=#001DBC;fontColor=#ffffff;" vertex="1" parent="1">
          <mxGeometry x="-760" y="1175" width="120" height="60" as="geometry" />
        </mxCell>
        <mxCell id="9QVo4-oOmZEvBFqGmnvR-64" value="No" style="text;html=1;align=center;verticalAlign=middle;resizable=0;points=[];autosize=1;strokeColor=none;fillColor=none;" vertex="1" parent="1">
          <mxGeometry x="-649" y="1064" width="33" height="26" as="geometry" />
        </mxCell>
        <mxCell id="9QVo4-oOmZEvBFqGmnvR-65" value="Yes" style="text;html=1;align=center;verticalAlign=middle;resizable=0;points=[];autosize=1;strokeColor=none;fillColor=none;" vertex="1" parent="1">
          <mxGeometry x="-556" y="1128" width="38" height="26" as="geometry" />
        </mxCell>
        <mxCell id="9QVo4-oOmZEvBFqGmnvR-66" value="Yes" style="text;html=1;align=center;verticalAlign=middle;resizable=0;points=[];autosize=1;strokeColor=none;fillColor=none;" vertex="1" parent="1">
          <mxGeometry x="-542" y="1484" width="38" height="26" as="geometry" />
        </mxCell>
        <mxCell id="9QVo4-oOmZEvBFqGmnvR-76" value="" style="edgeStyle=orthogonalEdgeStyle;rounded=0;orthogonalLoop=1;jettySize=auto;html=1;" edge="1" parent="1" source="9QVo4-oOmZEvBFqGmnvR-70" target="9QVo4-oOmZEvBFqGmnvR-75">
          <mxGeometry relative="1" as="geometry" />
        </mxCell>
        <mxCell id="9QVo4-oOmZEvBFqGmnvR-70" value="Setup movement buffer" style="strokeWidth=2;html=1;shape=mxgraph.flowchart.start_1;whiteSpace=wrap;fillColor=#60a917;strokeColor=#2D7600;fontColor=#ffffff;" vertex="1" parent="1">
          <mxGeometry x="-19" y="632" width="100" height="60" as="geometry" />
        </mxCell>
        <mxCell id="9QVo4-oOmZEvBFqGmnvR-78" style="edgeStyle=orthogonalEdgeStyle;rounded=0;orthogonalLoop=1;jettySize=auto;html=1;exitX=1;exitY=0.5;exitDx=0;exitDy=0;" edge="1" parent="1" source="9QVo4-oOmZEvBFqGmnvR-75" target="9QVo4-oOmZEvBFqGmnvR-77">
          <mxGeometry relative="1" as="geometry">
            <mxPoint x="96" y="661" as="sourcePoint" />
            <mxPoint x="475.00000000000045" y="1154" as="targetPoint" />
            <Array as="points">
              <mxPoint x="163" y="802" />
              <mxPoint x="163" y="1139" />
            </Array>
          </mxGeometry>
        </mxCell>
        <mxCell id="9QVo4-oOmZEvBFqGmnvR-80" value="" style="edgeStyle=orthogonalEdgeStyle;rounded=0;orthogonalLoop=1;jettySize=auto;html=1;" edge="1" parent="1" source="9QVo4-oOmZEvBFqGmnvR-75">
          <mxGeometry relative="1" as="geometry">
            <mxPoint x="31" y="922" as="targetPoint" />
          </mxGeometry>
        </mxCell>
        <mxCell id="9QVo4-oOmZEvBFqGmnvR-75" value="All movements treated ?" style="rhombus;whiteSpace=wrap;html=1;fillColor=#e3c800;strokeColor=#B09500;fontColor=#000000;strokeWidth=2;" vertex="1" parent="1">
          <mxGeometry x="-9" y="762" width="80" height="80" as="geometry" />
        </mxCell>
        <mxCell id="9QVo4-oOmZEvBFqGmnvR-77" value="End" style="strokeWidth=2;html=1;shape=mxgraph.flowchart.terminator;whiteSpace=wrap;fillColor=#e51400;fontColor=#ffffff;strokeColor=#B20000;" vertex="1" parent="1">
          <mxGeometry x="-19" y="1111" width="100" height="60" as="geometry" />
        </mxCell>
        <mxCell id="9QVo4-oOmZEvBFqGmnvR-94" value="" style="edgeStyle=orthogonalEdgeStyle;rounded=0;orthogonalLoop=1;jettySize=auto;html=1;" edge="1" parent="1" target="9QVo4-oOmZEvBFqGmnvR-75">
          <mxGeometry relative="1" as="geometry">
            <mxPoint x="31" y="1002" as="sourcePoint" />
            <mxPoint x="-80" y="735" as="targetPoint" />
            <Array as="points">
              <mxPoint x="-117" y="1002" />
              <mxPoint x="-117" y="735" />
              <mxPoint x="31" y="735" />
            </Array>
          </mxGeometry>
        </mxCell>
        <mxCell id="9QVo4-oOmZEvBFqGmnvR-81" value="Yes" style="text;html=1;align=center;verticalAlign=middle;resizable=0;points=[];autosize=1;strokeColor=none;fillColor=none;" vertex="1" parent="1">
          <mxGeometry x="68" y="771" width="38" height="26" as="geometry" />
        </mxCell>
        <mxCell id="9QVo4-oOmZEvBFqGmnvR-82" value="No" style="text;html=1;align=center;verticalAlign=middle;resizable=0;points=[];autosize=1;strokeColor=none;fillColor=none;" vertex="1" parent="1">
          <mxGeometry x="31" y="842" width="33" height="26" as="geometry" />
        </mxCell>
        <mxCell id="9QVo4-oOmZEvBFqGmnvR-84" value="" style="edgeStyle=orthogonalEdgeStyle;rounded=0;orthogonalLoop=1;jettySize=auto;html=1;" edge="1" parent="1" source="9QVo4-oOmZEvBFqGmnvR-4" target="9QVo4-oOmZEvBFqGmnvR-83">
          <mxGeometry relative="1" as="geometry">
            <mxPoint x="-555" y="818" as="sourcePoint" />
            <mxPoint x="-555" y="1374" as="targetPoint" />
          </mxGeometry>
        </mxCell>
        <mxCell id="9QVo4-oOmZEvBFqGmnvR-88" style="edgeStyle=orthogonalEdgeStyle;rounded=0;orthogonalLoop=1;jettySize=auto;html=1;" edge="1" parent="1" source="9QVo4-oOmZEvBFqGmnvR-83" target="9QVo4-oOmZEvBFqGmnvR-87">
          <mxGeometry relative="1" as="geometry" />
        </mxCell>
        <mxCell id="9QVo4-oOmZEvBFqGmnvR-83" value="Movement in buffer ?" style="rhombus;whiteSpace=wrap;html=1;strokeWidth=2;fillColor=#e3c800;strokeColor=#B09500;fontColor=#000000;" vertex="1" parent="1">
          <mxGeometry x="-595" y="890" width="80" height="80" as="geometry" />
        </mxCell>
        <mxCell id="9QVo4-oOmZEvBFqGmnvR-85" value="Yes" style="text;html=1;align=center;verticalAlign=middle;resizable=0;points=[];autosize=1;strokeColor=none;fillColor=none;" vertex="1" parent="1">
          <mxGeometry x="-556" y="968" width="38" height="26" as="geometry" />
        </mxCell>
        <mxCell id="9QVo4-oOmZEvBFqGmnvR-87" value="&lt;b&gt;Finish action&lt;/b&gt;" style="whiteSpace=wrap;html=1;strokeWidth=2;fillColor=#0050ef;strokeColor=#001DBC;fontColor=#ffffff;" vertex="1" parent="1">
          <mxGeometry x="-469" y="900" width="120" height="60" as="geometry" />
        </mxCell>
        <mxCell id="9QVo4-oOmZEvBFqGmnvR-95" value="No" style="text;html=1;align=center;verticalAlign=middle;resizable=0;points=[];autosize=1;strokeColor=none;fillColor=none;" vertex="1" parent="1">
          <mxGeometry x="35" y="1002" width="33" height="26" as="geometry" />
        </mxCell>
        <mxCell id="9QVo4-oOmZEvBFqGmnvR-111" value="&lt;span style=&quot;background-color: rgb(0, 0, 0);&quot;&gt;Inspect dependencies&lt;/span&gt;" style="verticalLabelPosition=bottom;verticalAlign=top;html=1;shape=process;whiteSpace=wrap;rounded=1;size=0.14;arcSize=6;fillColor=#1ba1e2;fontColor=#ffffff;strokeColor=#006EAF;" vertex="1" parent="1">
          <mxGeometry x="-19" y="924" width="100" height="60" as="geometry" />
        </mxCell>
        <mxCell id="9QVo4-oOmZEvBFqGmnvR-120" style="edgeStyle=orthogonalEdgeStyle;rounded=0;orthogonalLoop=1;jettySize=auto;html=1;" edge="1" parent="1" source="9QVo4-oOmZEvBFqGmnvR-112">
          <mxGeometry relative="1" as="geometry">
            <mxPoint x="747" y="982.8519228980654" as="targetPoint" />
          </mxGeometry>
        </mxCell>
        <mxCell id="9QVo4-oOmZEvBFqGmnvR-112" value="Dependencies remaining ?" style="rhombus;whiteSpace=wrap;html=1;fillColor=#e3c800;strokeColor=#B09500;fontColor=#000000;strokeWidth=2;" vertex="1" parent="1">
          <mxGeometry x="689" y="823" width="116" height="80" as="geometry" />
        </mxCell>
        <mxCell id="9QVo4-oOmZEvBFqGmnvR-118" style="edgeStyle=orthogonalEdgeStyle;rounded=0;orthogonalLoop=1;jettySize=auto;html=1;" edge="1" parent="1" source="9QVo4-oOmZEvBFqGmnvR-113" target="9QVo4-oOmZEvBFqGmnvR-112">
          <mxGeometry relative="1" as="geometry" />
        </mxCell>
        <mxCell id="9QVo4-oOmZEvBFqGmnvR-113" value="Inspect dependencies" style="strokeWidth=2;html=1;shape=mxgraph.flowchart.start_1;whiteSpace=wrap;fillColor=#60a917;strokeColor=#2D7600;fontColor=#ffffff;" vertex="1" parent="1">
          <mxGeometry x="697" y="684" width="100" height="60" as="geometry" />
        </mxCell>
        <mxCell id="9QVo4-oOmZEvBFqGmnvR-114" style="edgeStyle=orthogonalEdgeStyle;rounded=0;orthogonalLoop=1;jettySize=auto;html=1;" edge="1" parent="1" source="9QVo4-oOmZEvBFqGmnvR-112">
          <mxGeometry relative="1" as="geometry">
            <mxPoint x="805" y="860" as="sourcePoint" />
            <mxPoint x="909" y="863" as="targetPoint" />
          </mxGeometry>
        </mxCell>
        <mxCell id="9QVo4-oOmZEvBFqGmnvR-119" value="&lt;span style=&quot;background-color: rgb(0, 0, 0);&quot;&gt;Inspect dependencies&lt;/span&gt;" style="verticalLabelPosition=bottom;verticalAlign=top;html=1;shape=process;whiteSpace=wrap;rounded=1;size=0.14;arcSize=6;fillColor=#1ba1e2;fontColor=#ffffff;strokeColor=#006EAF;" vertex="1" parent="1">
          <mxGeometry x="910" y="833" width="100" height="60" as="geometry" />
        </mxCell>
        <mxCell id="9QVo4-oOmZEvBFqGmnvR-121" value="&lt;b&gt;Add movement :&lt;/b&gt;&lt;div&gt;top of stack + increment&lt;/div&gt;" style="whiteSpace=wrap;html=1;fillColor=#0050ef;strokeColor=#001DBC;fontColor=#ffffff;strokeWidth=2;" vertex="1" parent="1">
          <mxGeometry x="689" y="984" width="120" height="60" as="geometry" />
        </mxCell>
        <mxCell id="9QVo4-oOmZEvBFqGmnvR-122" value="No" style="text;html=1;align=center;verticalAlign=middle;resizable=0;points=[];autosize=1;strokeColor=none;fillColor=none;" vertex="1" parent="1">
          <mxGeometry x="752" y="903" width="33" height="26" as="geometry" />
        </mxCell>
        <mxCell id="9QVo4-oOmZEvBFqGmnvR-123" value="Yes" style="text;html=1;align=center;verticalAlign=middle;resizable=0;points=[];autosize=1;strokeColor=none;fillColor=none;" vertex="1" parent="1">
          <mxGeometry x="805" y="837" width="38" height="26" as="geometry" />
        </mxCell>
        <mxCell id="9QVo4-oOmZEvBFqGmnvR-126" value="" style="edgeStyle=orthogonalEdgeStyle;rounded=0;orthogonalLoop=1;jettySize=auto;html=1;" edge="1" parent="1" source="9QVo4-oOmZEvBFqGmnvR-23" target="9QVo4-oOmZEvBFqGmnvR-125">
          <mxGeometry relative="1" as="geometry">
            <mxPoint x="-555" y="1473" as="sourcePoint" />
            <mxPoint x="-554" y="1741" as="targetPoint" />
          </mxGeometry>
        </mxCell>
        <mxCell id="9QVo4-oOmZEvBFqGmnvR-125" value="&lt;div&gt;&lt;b&gt;Update hardware&lt;/b&gt;&lt;/div&gt;" style="whiteSpace=wrap;html=1;strokeWidth=2;fillColor=#0050ef;strokeColor=#001DBC;fontColor=#ffffff;" vertex="1" parent="1">
          <mxGeometry x="-614" y="1580" width="120" height="60" as="geometry" />
        </mxCell>
        <mxCell id="9QVo4-oOmZEvBFqGmnvR-127" value="No" style="text;html=1;align=center;verticalAlign=middle;resizable=0;points=[];autosize=1;strokeColor=none;fillColor=none;" vertex="1" parent="1">
          <mxGeometry x="-518" y="900" width="33" height="26" as="geometry" />
        </mxCell>
      </root>
    </mxGraphModel>
  </diagram>
</mxfile>
